<?xml version="1.0" standalone="no"?>
<!DOCTYPE svg PUBLIC "-//W3C//DTD SVG 20010904//EN"
 "http://www.w3.org/TR/2001/REC-SVG-20010904/DTD/svg10.dtd">
<svg version="1.0" xmlns="http://www.w3.org/2000/svg"
 width="300.000000pt" height="250.000000pt" viewBox="0 0 300.000000 250.000000"
 preserveAspectRatio="xMidYMid meet">
<metadata>
Created by potrace 1.10, written by Peter Selinger 2001-2011
</metadata>
<g transform="translate(0.000000,250.000000) scale(0.100000,-0.100000)"
fill="#000000" stroke="none">
<path d="M1454 1561 c-12 -5 -31 -22 -43 -37 -19 -25 -21 -39 -21 -181 l0
-155 34 -34 c28 -28 42 -34 76 -34 34 0 48 6 76 34 l34 34 0 156 0 156 -27 30
c-30 34 -89 48 -129 31z m97 -61 c18 -24 22 -79 20 -252 -1 -55 -28 -88 -71
-88 -14 0 -36 9 -48 20 -21 19 -22 30 -22 161 0 136 1 141 25 165 32 31 71 29
96 -6z"/>
<path d="M532 1518 c-18 -18 -17 -522 1 -537 8 -6 17 -8 20 -4 10 10 8 541 -1
547 -5 3 -14 0 -20 -6z"/>
<path d="M2440 1250 c0 -244 1 -261 18 -258 16 3 17 23 17 258 0 235 -1 255
-17 258 -17 3 -18 -14 -18 -258z"/>
<path d="M1135 1468 c-3 -7 -4 -110 -3 -228 3 -183 5 -215 18 -215 13 0 15 32
15 224 0 171 -3 225 -12 228 -7 3 -15 -1 -18 -9z"/>
<path d="M1920 1250 c0 -206 1 -221 18 -218 16 3 17 21 17 218 0 197 -1 215
-17 218 -17 3 -18 -12 -18 -218z"/>
<path d="M2350 1250 c0 -193 1 -200 20 -200 19 0 20 7 20 200 0 193 -1 200
-20 200 -19 0 -20 -7 -20 -200z"/>
<path d="M440 1250 c0 -172 2 -191 16 -188 15 3 17 24 16 188 0 161 -2 185
-16 188 -14 3 -16 -18 -16 -188z"/>
<path d="M610 1250 c0 -183 1 -190 20 -190 19 0 20 7 20 190 0 183 -1 190 -20
190 -19 0 -20 -7 -20 -190z"/>
<path d="M2534 1429 c-3 -6 -7 -87 -7 -179 0 -92 4 -173 7 -179 19 -31 26 15
26 179 0 164 -7 210 -26 179z"/>
<path d="M960 1250 c0 -167 1 -181 18 -178 15 3 17 20 17 178 0 158 -2 175
-17 178 -17 3 -18 -11 -18 -178z"/>
<path d="M1835 1418 c-3 -8 -4 -88 -3 -178 3 -139 5 -165 18 -165 13 0 15 26
15 174 0 131 -3 175 -12 178 -7 3 -15 -2 -18 -9z"/>
<path d="M1052 1408 c-18 -18 -16 -302 1 -317 8 -6 17 -8 20 -4 10 9 8 321 -1
327 -5 3 -14 0 -20 -6z"/>
<path d="M1225 1388 c-3 -8 -4 -75 -3 -149 3 -111 6 -134 18 -134 13 0 15 23
15 144 0 107 -3 145 -12 148 -7 3 -15 -2 -18 -9z"/>
<path d="M2004 1387 c-2 -7 -3 -73 -2 -147 3 -119 5 -135 21 -138 16 -3 17 9
17 147 0 129 -2 151 -15 151 -9 0 -18 -6 -21 -13z"/>
<path d="M273 1383 c-20 -7 -18 -259 1 -266 8 -3 17 -3 20 0 9 9 7 261 -1 266
-5 2 -14 2 -20 0z"/>
<path d="M707 1373 c-9 -8 -9 -238 0 -246 3 -4 12 -2 20 4 19 16 19 222 0 238
-8 6 -17 8 -20 4z"/>
<path d="M875 1368 c-3 -8 -4 -66 -3 -129 2 -93 6 -114 18 -114 13 0 15 20 15
124 0 91 -3 125 -12 128 -7 3 -15 -2 -18 -9z"/>
<path d="M1753 1373 c-20 -7 -18 -239 1 -246 8 -3 17 -3 20 0 9 9 7 241 -1
246 -5 2 -14 2 -20 0z"/>
<path d="M2264 1367 c-2 -7 -3 -65 -2 -127 3 -100 5 -115 21 -118 15 -3 17 8
17 127 0 111 -2 131 -15 131 -9 0 -18 -6 -21 -13z"/>
<path d="M2700 1250 c0 -110 2 -121 18 -118 15 3 17 17 17 118 0 101 -2 115
-17 118 -16 3 -18 -8 -18 -118z"/>
<path d="M350 1250 c0 -91 2 -101 18 -98 15 3 17 16 17 98 0 82 -2 95 -17 98
-16 3 -18 -7 -18 -98z"/>
<path d="M2095 1337 c-3 -7 -5 -52 -3 -98 2 -67 6 -84 18 -84 12 0 15 17 15
94 0 67 -4 96 -12 98 -7 3 -15 -2 -18 -10z"/>
<path d="M784 1316 c-3 -7 -4 -42 -2 -77 2 -51 6 -64 21 -67 15 -3 17 6 17 77
0 66 -3 81 -15 81 -9 0 -18 -6 -21 -14z"/>
<path d="M2187 1323 c-4 -3 -7 -36 -7 -73 0 -72 6 -86 27 -69 8 7 13 33 13 69
0 54 -16 90 -33 73z"/>
<path d="M2614 1316 c-3 -7 -4 -42 -2 -77 2 -51 6 -64 21 -67 15 -3 17 6 17
77 0 66 -3 81 -15 81 -9 0 -18 -6 -21 -14z"/>
<path d="M187 1313 c-12 -11 -8 -121 4 -129 6 -3 14 -2 18 4 5 8 6 88 2 125
-1 9 -15 9 -24 0z"/>
<path d="M2789 1298 c-8 -81 -3 -108 17 -108 10 0 14 15 14 60 0 47 -3 60 -15
60 -8 0 -16 -6 -16 -12z"/>
<path d="M1314 1275 c-9 -24 4 -92 26 -136 22 -42 50 -65 107 -84 34 -12 37
-16 38 -54 l1 -41 -38 0 c-27 0 -38 -4 -38 -15 0 -12 17 -15 90 -15 73 0 90 3
90 15 0 11 -11 15 -38 15 l-38 0 2 42 c2 41 4 43 39 52 57 13 111 72 125 138
14 63 11 93 -10 93 -11 0 -16 -15 -20 -55 -8 -94 -64 -150 -150 -150 -86 0
-141 56 -150 149 -5 54 -24 78 -36 46z"/>
</g>
</svg>
