<?xml version="1.0" standalone="no"?>
<!DOCTYPE svg PUBLIC "-//W3C//DTD SVG 20010904//EN"
 "http://www.w3.org/TR/2001/REC-SVG-20010904/DTD/svg10.dtd">
<svg version="1.0" xmlns="http://www.w3.org/2000/svg"
 width="300.000000pt" height="300.000000pt" viewBox="0 0 300.000000 300.000000"
 preserveAspectRatio="xMidYMid meet">
<metadata>
Created by potrace 1.10, written by Peter Selinger 2001-2011
</metadata>
<g transform="translate(0.000000,300.000000) scale(0.100000,-0.100000)"
fill="#000000" stroke="none">
<path d="M1236 2884 c-13 -12 -16 -39 -16 -128 l0 -112 -72 -23 c-40 -12 -115
-43 -167 -68 l-93 -44 -83 80 c-45 45 -89 81 -96 81 -18 0 -379 -361 -379
-379 0 -7 36 -51 81 -96 l80 -83 -44 -93 c-25 -52 -56 -127 -68 -166 l-23 -73
-111 0 c-96 0 -114 -3 -128 -18 -15 -16 -17 -50 -17 -265 0 -210 2 -248 16
-261 12 -13 39 -16 128 -16 l112 0 23 -73 c12 -39 43 -114 68 -166 l44 -93
-80 -83 c-45 -45 -81 -89 -81 -96 0 -18 361 -379 379 -379 7 0 51 36 96 81
l83 80 93 -44 c52 -25 127 -56 167 -68 l72 -23 0 -112 c0 -89 3 -116 16 -128
23 -24 505 -24 528 0 13 12 16 39 16 128 l0 112 73 23 c39 12 114 43 166 68
l93 44 83 -80 c45 -45 89 -81 96 -81 18 0 379 361 379 379 0 7 -36 51 -81 96
l-80 83 44 93 c25 52 56 127 68 166 l23 73 112 0 c89 0 116 3 128 16 24 23 24
505 0 528 -12 13 -39 16 -128 16 l-112 0 -23 73 c-12 39 -43 114 -68 166 l-44
93 80 83 c45 45 81 89 81 96 0 18 -361 379 -379 379 -7 0 -51 -36 -96 -81
l-83 -80 -93 44 c-52 25 -127 56 -166 68 l-73 23 0 112 c0 89 -3 116 -16 128
-13 14 -51 16 -264 16 -213 0 -251 -2 -264 -16z m505 -34 c5 -8 9 -33 8 -55
-3 -119 1 -146 24 -166 12 -11 56 -32 97 -45 41 -14 77 -30 78 -35 2 -5 10 -9
18 -9 8 0 37 -11 64 -25 78 -40 96 -35 179 45 58 56 76 68 90 60 10 -5 88 -79
174 -165 106 -106 154 -161 150 -171 -3 -9 -34 -44 -69 -79 -35 -35 -65 -70
-65 -77 -4 -35 -3 -53 3 -58 12 -9 84 -174 97 -221 7 -25 23 -58 35 -74 22
-27 25 -28 117 -28 52 0 99 -4 106 -9 9 -7 12 -73 11 -244 -1 -260 5 -241 -75
-243 -33 -1 -43 3 -43 15 0 10 6 14 15 10 22 -8 62 10 75 34 7 13 11 86 11
197 0 222 3 216 -135 219 -52 1 -99 5 -104 8 -13 8 -34 94 -27 107 4 5 1 9 -4
9 -6 0 -11 7 -11 16 0 18 -51 126 -92 197 -33 56 -32 57 57 147 30 30 55 63
55 73 0 28 -19 53 -110 145 -103 105 -159 152 -182 152 -10 0 -49 -29 -87 -65
-64 -60 -111 -88 -111 -64 0 5 -4 9 -10 9 -5 0 -31 13 -57 28 -26 15 -77 39
-113 52 -36 13 -67 26 -70 29 -3 3 -14 8 -25 9 -11 2 -26 9 -34 15 -12 10 -13
9 -7 -1 7 -11 4 -12 -11 -4 -28 16 -45 38 -43 59 1 10 2 48 1 86 -2 107 -3
107 -221 107 -220 0 -219 0 -221 -112 -1 -40 -1 -77 0 -82 6 -33 -26 -58 -89
-70 -52 -10 -191 -70 -263 -114 -45 -27 -51 -25 -132 57 -40 41 -67 61 -83 61
-16 0 -48 -23 -94 -67 -92 -89 -181 -181 -191 -200 -15 -25 0 -56 48 -103 26
-25 55 -58 65 -74 18 -28 18 -29 -2 -65 -43 -75 -77 -147 -84 -176 -4 -16 -10
-34 -14 -40 -4 -5 -13 -34 -20 -63 -6 -28 -17 -55 -23 -59 -6 -4 -45 -8 -86
-9 -94 -3 -129 -11 -141 -34 -6 -10 -10 -99 -10 -198 0 -222 -4 -215 137 -218
53 -2 99 -6 104 -11 4 -4 11 -23 14 -41 9 -55 10 -57 16 -62 3 -3 16 -34 29
-70 12 -36 40 -97 61 -137 l39 -72 -60 -63 c-79 -85 -88 -102 -68 -135 25 -41
241 -253 265 -259 28 -7 61 11 98 54 16 19 45 45 64 58 33 22 35 22 60 6 24
-16 105 -57 192 -95 20 -9 59 -22 88 -28 75 -16 79 -23 74 -122 -5 -77 -3 -85
18 -110 24 -27 25 -27 167 -28 78 -1 145 -5 148 -10 4 -8 -264 -15 -321 -9
-30 3 -33 15 -33 117 1 84 -2 96 -22 118 -12 13 -25 23 -29 22 -10 -3 -132 43
-209 79 -108 50 -122 47 -214 -47 -31 -33 -61 -59 -65 -59 -12 0 -343 329
-343 341 0 5 32 41 70 80 80 80 85 100 46 177 -13 26 -36 79 -51 117 -41 106
-63 153 -77 162 -7 4 -53 6 -103 5 -50 -1 -96 2 -104 7 -12 8 -14 50 -13 237
1 265 -2 256 97 253 130 -3 136 0 169 91 13 36 35 90 49 120 14 30 28 65 32
78 3 12 11 22 16 22 5 0 9 18 9 39 0 35 -8 47 -70 110 -39 40 -70 76 -70 81 0
13 331 340 343 340 6 0 41 -31 78 -70 61 -64 71 -70 107 -70 24 0 45 6 53 16
7 9 22 14 36 11 12 -2 20 -1 18 4 -5 7 49 39 67 39 5 0 27 9 49 19 22 11 53
23 69 26 49 11 60 37 60 147 0 122 -23 113 308 113 142 0 174 -3 183 -15z
m-49 -148 c-3 -86 0 -111 11 -121 8 -6 47 -21 87 -32 90 -25 178 -61 253 -105
32 -19 66 -34 75 -34 9 0 52 35 94 77 l78 78 137 -138 138 -137 -78 -78 c-42
-42 -77 -85 -77 -94 0 -9 15 -43 34 -75 44 -75 80 -163 105 -253 11 -40 26
-79 32 -87 10 -11 35 -14 121 -11 l108 3 0 -195 0 -195 -112 0 c-131 0 -117
13 -168 -152 -18 -56 -52 -137 -76 -179 -24 -43 -44 -84 -44 -93 0 -9 35 -51
77 -93 l78 -78 -138 -137 -137 -138 -78 78 c-42 42 -85 77 -94 77 -9 0 -43
-15 -75 -34 -75 -44 -163 -80 -253 -105 -40 -11 -78 -26 -86 -32 -10 -8 -14
-39 -14 -120 l0 -109 -192 0 -193 0 3 108 c2 84 0 111 -11 120 -7 6 -52 23
-98 36 -94 27 -195 70 -257 110 -23 14 -49 26 -59 26 -10 0 -53 -35 -95 -77
l-78 -78 -137 138 -138 137 78 78 c42 42 77 85 77 94 0 9 -15 43 -34 75 -44
75 -80 163 -105 253 -11 40 -26 79 -32 87 -10 11 -35 14 -121 11 l-108 -3 0
195 0 195 108 -3 c86 -3 111 0 121 11 6 8 21 47 32 87 25 90 61 178 105 253
19 32 34 66 34 75 0 9 -35 52 -77 94 l-78 78 138 137 137 138 78 -78 c42 -42
85 -77 94 -77 9 0 43 15 75 34 75 44 163 80 253 105 40 11 79 26 87 32 11 10
14 35 11 121 l-3 108 195 0 195 0 -3 -108z m1025 -1435 c-2 -7 -19 -13 -38
-15 -19 -2 -40 -9 -47 -15 -15 -12 -43 -71 -61 -132 -13 -42 -52 -126 -62
-135 -3 -3 -9 -18 -13 -35 -4 -16 -9 -38 -12 -47 -3 -11 18 -41 66 -90 38 -40
70 -79 70 -88 0 -20 -304 -324 -328 -328 -10 -2 -42 21 -78 56 -96 94 -87 93
-219 32 -104 -47 -106 -48 -155 -61 -56 -15 -86 -41 -94 -80 -8 -39 -27 -28
-24 14 2 43 23 65 67 73 20 3 46 10 58 16 12 6 29 8 38 4 9 -3 18 0 21 9 3 8
22 19 42 26 37 12 90 39 127 65 31 22 50 17 96 -30 24 -24 61 -55 82 -69 32
-22 41 -24 60 -14 25 14 232 221 255 254 22 35 8 66 -63 138 -60 60 -64 66
-53 90 6 14 15 25 20 25 4 0 8 8 8 19 0 10 7 24 15 31 9 7 14 15 11 17 -2 2 8
30 23 61 15 31 36 86 45 122 10 36 24 72 32 81 17 19 118 25 111 6z m-970
-1047 c1 -57 -1 -70 -15 -74 -52 -14 -70 -14 -86 -3 -16 12 -16 13 4 14 46 4
78 39 71 77 -3 16 9 56 17 56 4 0 8 -31 9 -70z"/>
<path d="M1355 2480 c-96 -15 -223 -58 -315 -107 -250 -132 -424 -353 -502
-641 -31 -116 -31 -343 1 -467 25 -99 91 -247 142 -321 49 -71 176 -201 244
-249 253 -179 576 -231 870 -138 330 104 572 362 667 711 30 112 31 354 0 464
-55 201 -123 319 -267 463 -145 145 -268 215 -463 266 -89 23 -285 33 -377 19z
m108 -35 c-3 -8 -13 -15 -22 -16 -95 -3 -231 -35 -305 -70 -22 -10 -46 -19
-53 -19 -7 0 -13 -4 -13 -10 0 -5 -4 -10 -9 -10 -10 0 -126 -75 -147 -94 -120
-111 -180 -184 -238 -287 -24 -44 -75 -171 -75 -187 0 -4 -5 -28 -11 -53 -6
-26 -13 -62 -15 -80 -2 -19 -4 -36 -5 -39 -9 -25 1 -181 15 -245 10 -44 19
-88 20 -97 1 -10 4 -21 8 -24 4 -4 7 -14 7 -22 0 -29 76 -169 137 -253 59 -81
124 -145 203 -199 19 -13 37 -27 40 -30 20 -25 214 -105 305 -125 17 -4 39 -9
50 -11 29 -7 241 -6 295 1 25 4 54 10 65 15 11 4 59 20 107 34 48 15 90 31 93
37 4 5 23 16 43 25 20 8 39 18 42 22 3 4 28 22 55 41 73 50 171 154 234 251
31 47 56 87 57 90 0 3 7 19 14 35 7 17 14 35 15 40 2 6 12 39 24 74 11 35 24
91 27 126 4 41 11 62 20 62 7 0 11 -5 7 -10 -3 -5 -7 -32 -9 -59 -3 -27 -9
-58 -14 -68 -5 -9 -7 -20 -4 -23 7 -6 -24 -96 -38 -111 -4 -6 -8 -17 -8 -25 0
-16 -59 -121 -112 -198 -106 -159 -371 -337 -529 -356 -20 -3 -41 -7 -46 -10
-27 -17 -256 -32 -277 -19 -5 3 -28 7 -50 9 -56 6 -91 11 -91 13 0 1 -13 4
-29 6 -16 3 -38 10 -48 15 -11 6 -27 12 -37 14 -10 2 -35 12 -57 23 -21 11
-54 27 -72 36 -144 67 -350 298 -412 461 -12 33 -27 69 -32 81 -5 11 -8 24 -7
30 1 5 -3 21 -11 36 -10 22 -11 30 0 43 10 12 10 15 -3 15 -9 0 -16 8 -17 18
-7 108 -7 218 1 267 5 33 10 69 10 81 0 11 11 52 25 90 15 38 29 79 31 92 3
12 9 22 14 22 5 0 9 7 9 15 0 14 36 85 49 95 3 3 13 18 21 34 17 33 216 236
231 236 6 0 18 8 29 18 18 16 131 76 175 92 11 4 31 12 45 18 45 19 177 46
247 50 25 1 31 -2 26 -13z m201 0 c37 -5 86 -18 131 -36 11 -4 38 -13 60 -20
22 -7 56 -21 75 -32 53 -29 104 -60 110 -67 3 -3 23 -18 45 -35 65 -48 104
-86 159 -154 52 -66 60 -78 93 -141 11 -19 24 -44 30 -55 25 -47 36 -80 69
-205 19 -74 23 -235 5 -253 -8 -8 -11 13 -12 79 0 49 -2 98 -4 109 -2 11 -6
31 -8 45 -2 14 -6 32 -9 40 -3 8 -14 42 -23 75 -35 120 -128 270 -227 366 -58
57 -198 159 -217 159 -6 0 -11 3 -11 8 0 12 -123 59 -205 78 -79 19 -148 28
-197 26 -54 -2 -68 4 -51 22 6 6 83 2 187 -9z m61 -69 c316 -88 556 -325 647
-641 33 -116 33 -354 0 -470 -91 -318 -331 -554 -652 -642 -92 -25 -348 -25
-440 0 -321 88 -561 324 -652 642 -30 106 -33 352 -5 455 94 341 359 595 697
666 87 18 323 12 405 -10z"/>
<path d="M1928 2115 c-3 -3 -93 -6 -200 -5 l-194 0 -127 -45 c-141 -50 -155
-50 -305 -3 -72 22 -123 16 -154 -19 -9 -10 -73 -108 -142 -217 -161 -255
-161 -251 -38 -395 l29 -35 -23 -50 c-13 -28 -24 -61 -24 -72 0 -32 38 -74 67
-74 22 0 24 -3 18 -29 -4 -19 -1 -41 9 -59 20 -39 82 -92 107 -92 12 0 43 -25
76 -60 38 -41 63 -60 79 -60 15 0 37 -14 60 -39 48 -54 92 -68 139 -46 19 10
48 33 65 52 l30 34 91 -46 c115 -57 161 -60 214 -14 19 17 38 41 41 54 5 20
10 21 54 17 46 -4 52 -2 83 29 23 23 36 47 40 74 5 33 12 42 37 52 33 13 69
77 70 125 0 22 7 31 34 42 50 21 68 54 65 120 l-3 56 51 25 c28 14 72 48 97
75 41 44 46 54 46 95 0 41 -14 70 -127 262 -135 230 -156 253 -224 253 -20 0
-38 -2 -41 -5z m-210 -46 c12 -5 22 -5 22 0 0 5 59 9 131 10 146 1 174 -8 205
-72 22 -47 64 -120 78 -137 7 -8 30 -46 52 -85 21 -38 41 -72 45 -75 5 -4 22
-45 24 -60 0 -3 4 -11 8 -18 22 -33 -45 -129 -113 -164 -49 -25 -70 -56 -71
-106 -1 -26 -1 -50 0 -54 0 -3 -19 -22 -44 -42 -32 -27 -48 -50 -61 -89 -11
-34 -30 -64 -55 -87 -23 -21 -41 -48 -45 -67 -9 -45 -55 -83 -100 -83 -31 0
-45 -8 -86 -51 -47 -50 -51 -51 -91 -46 -24 3 -74 22 -112 41 -91 46 -113 46
-170 -4 -25 -22 -55 -40 -67 -40 -11 0 -47 20 -80 45 -33 25 -66 45 -74 45 -8
0 -42 27 -76 60 -34 33 -70 60 -79 60 -15 0 -88 71 -90 88 -4 41 -14 61 -44
85 -40 33 -43 51 -19 120 20 59 14 83 -29 128 -19 18 -41 45 -50 59 -19 31
-15 103 7 126 9 8 16 19 16 24 0 5 6 15 14 22 7 8 21 30 31 48 10 19 33 56 51
83 19 26 34 50 34 55 1 4 14 23 30 42 17 19 30 39 30 44 0 5 12 23 27 38 31
33 84 37 152 13 23 -8 74 -17 114 -20 64 -6 81 -3 154 23 45 16 80 25 78 21
-3 -4 12 1 32 12 41 20 176 25 221 8z"/>
<path d="M1565 2048 c-62 -6 -95 -15 -156 -42 -20 -8 -39 -13 -42 -10 -10 10
-87 -73 -87 -94 0 -12 -4 -22 -10 -22 -5 0 -10 -11 -10 -25 0 -14 -4 -25 -9
-25 -5 0 -8 -6 -8 -12 1 -7 -2 -32 -7 -56 -9 -50 3 -72 41 -72 16 0 43 19 83
59 50 51 63 58 92 56 18 -1 50 4 71 11 37 13 61 10 83 -10 37 -35 100 -78 201
-139 82 -49 125 -83 212 -164 19 -18 39 -33 45 -34 59 -6 122 24 169 81 38 44
35 81 -13 161 -22 37 -40 72 -40 78 0 6 -4 11 -9 11 -5 0 -14 15 -22 33 -7 17
-16 34 -19 37 -4 3 -26 38 -49 78 -65 112 -52 107 -269 107 -103 0 -214 -3
-247 -7z m552 -220 c65 -111 119 -207 121 -213 4 -17 -36 -63 -77 -89 -72 -46
-73 -45 -166 42 -52 48 -115 95 -163 121 -43 23 -119 74 -167 112 -49 38 -92
69 -96 69 -5 0 -26 -9 -49 -21 -32 -17 -50 -20 -88 -14 l-48 6 -37 -56 c-35
-52 -79 -86 -93 -72 -4 4 11 57 32 119 l39 113 95 35 c93 33 99 34 290 40 107
3 216 7 242 8 l46 2 119 -202z"/>
<path d="M1002 2004 c-21 -15 -122 -159 -122 -175 0 -4 -4 -9 -8 -11 -8 -3
-72 -95 -72 -103 0 -2 -13 -26 -30 -52 -32 -50 -39 -102 -17 -125 6 -7 32 -38
56 -68 25 -30 68 -78 95 -106 45 -45 57 -52 105 -58 44 -6 61 -14 95 -48 22
-22 57 -48 77 -59 20 -10 56 -36 80 -59 24 -22 51 -40 61 -40 25 0 98 -73 98
-99 0 -31 46 -72 115 -104 87 -40 100 -41 135 -6 52 52 37 84 -72 158 -42 28
-61 51 -42 51 3 0 43 -24 87 -54 105 -68 103 -67 142 -76 29 -7 37 -4 63 24
40 42 34 84 -17 127 -20 16 -48 41 -64 55 -15 13 -30 24 -33 24 -2 0 -10 4
-17 10 -55 44 -70 59 -61 60 13 0 103 -58 129 -85 11 -11 43 -32 70 -47 41
-21 54 -24 70 -15 35 19 48 38 50 70 2 46 -17 78 -72 117 -26 19 -49 38 -51
42 -2 4 -10 8 -17 8 -7 0 -15 4 -17 9 -1 4 -22 20 -45 35 -24 14 -43 31 -43
36 0 15 8 12 44 -15 18 -14 36 -25 39 -25 3 0 40 -25 83 -55 42 -30 87 -58 99
-61 31 -8 64 11 76 43 10 27 -3 86 -25 109 -73 79 -124 126 -168 155 -29 19
-108 72 -176 118 -121 81 -124 83 -170 76 -26 -3 -63 -8 -81 -10 -25 -3 -49
-19 -87 -56 -62 -62 -113 -75 -151 -39 -28 25 -28 42 -4 96 10 23 22 57 26 75
4 19 11 39 16 45 15 18 -7 61 -39 78 -16 8 -32 12 -35 9 -4 -3 -13 -1 -20 5
-8 7 -16 9 -20 6 -3 -3 -14 -1 -24 4 -38 20 -88 23 -111 6z m106 -34 c35 -11
77 -20 93 -20 16 0 29 -4 29 -9 0 -5 -18 -61 -40 -125 -45 -126 -44 -138 11
-170 62 -37 145 -11 196 62 25 35 32 38 74 39 25 0 56 6 68 12 19 11 31 5 107
-52 47 -36 116 -81 154 -102 94 -51 226 -175 241 -225 14 -46 7 -70 -21 -70
-11 0 -81 43 -156 95 -75 52 -142 95 -150 95 -16 0 -44 -28 -44 -43 0 -21 13
-32 144 -122 70 -49 130 -95 133 -101 7 -20 -17 -94 -31 -94 -7 0 -67 41 -134
90 -124 91 -149 102 -172 75 -25 -30 -1 -59 115 -140 103 -72 114 -83 115
-111 1 -82 -43 -78 -183 20 -52 36 -104 66 -115 66 -24 0 -45 -23 -40 -46 2
-15 114 -104 167 -133 10 -6 11 -13 2 -29 -24 -45 -44 -45 -136 0 -70 35 -85
46 -85 66 0 53 -53 115 -110 127 -15 3 -51 28 -78 56 -33 33 -57 49 -74 49
-18 0 -33 11 -51 38 -31 48 -86 76 -136 69 -36 -5 -37 -4 -136 114 -55 66
-101 124 -103 129 -6 17 250 410 267 410 9 0 45 -9 79 -20z"/>
<path d="M836 1318 c-11 -15 -12 -26 -5 -40 12 -23 30 -23 56 0 18 15 19 20 7
37 -8 10 -17 16 -20 12 -4 -4 -1 -13 5 -21 10 -12 8 -16 -9 -21 -28 -9 -33 -3
-21 29 13 32 7 33 -13 4z"/>
<path d="M979 1265 c-30 -16 -79 -87 -79 -113 0 -27 36 -70 63 -74 50 -9 137
68 137 120 0 55 -72 95 -121 67z m78 -37 c13 -12 23 -25 23 -29 0 -14 -87 -99
-101 -99 -15 0 -59 39 -59 52 0 20 75 98 94 98 11 0 30 -10 43 -22z"/>
<path d="M1107 1138 c-54 -44 -72 -82 -56 -119 14 -34 36 -49 75 -49 33 0 124
88 124 121 0 28 -53 79 -82 79 -13 -1 -40 -15 -61 -32z m97 -17 l29 -30 -55
-55 -55 -54 -31 31 -32 31 52 53 c29 29 55 53 58 53 4 0 19 -13 34 -29z"/>
<path d="M1285 1058 c-34 -18 -95 -90 -95 -113 0 -12 13 -36 29 -53 38 -39 60
-34 123 29 54 54 60 84 25 118 -29 26 -56 33 -82 19z m70 -40 c15 -22 13 -25
-40 -78 l-55 -55 -27 28 -27 27 49 50 c54 55 76 61 100 28z"/>
</g>
</svg>
